HIERARCHY
ROOT pelvis
{
	OFFSET 0.000000 0.730297 -0.000000
	CHANNELS 6 Xposition Yposition Zposition Xrotation Yrotation Zrotation
	JOINT spine
	{
		OFFSET 0.000000 0.000000 0.000000
		CHANNELS 6 Xposition Yposition Zposition Xrotation Yrotation Zrotation
		JOINT spine.001
		{
			OFFSET 0.000000 0.266578 0.013971
			CHANNELS 3 Xrotation Yrotation Zrotation
			JOINT neck
			{
				OFFSET 0.000000 0.264954 -0.032532
				CHANNELS 6 Xposition Yposition Zposition Xrotation Yrotation Zrotation
				JOINT face
				{
					OFFSET 0.000000 0.213700 -0.003730
					CHANNELS 6 Xposition Yposition Zposition Xrotation Yrotation Zrotation
					End Site
					{
						OFFSET 0.000000 -0.007763 0.028163
					}
				}
			}
			JOINT shoulder.L
			{
				OFFSET 0.000000 0.264954 -0.032532
				CHANNELS 6 Xposition Yposition Zposition Yrotation Xrotation Zrotation
				JOINT upper_arm.L
				{
					OFFSET 0.164955 0.000000 0.000000
					CHANNELS 6 Xposition Yposition Zposition Xrotation Yrotation Zrotation
					JOINT forearm.L
					{
						OFFSET 0.279839 0.000957 -0.000115
						CHANNELS 6 Xposition Yposition Zposition Xrotation Yrotation Zrotation
						End Site
						{
							OFFSET 0.243877 -0.001319 0.004151
						}
					}
				}
			}
			JOINT shoulder.R
			{
				OFFSET 0.000000 0.264954 -0.032532
				CHANNELS 6 Xposition Yposition Zposition Yrotation Xrotation Zrotation
				JOINT upper_arm.R
				{
					OFFSET -0.164955 0.000000 0.000000
					CHANNELS 6 Xposition Yposition Zposition Xrotation Yrotation Zrotation
					JOINT forearm.R
					{
						OFFSET -0.274111 0.000957 -0.000115
						CHANNELS 6 Xposition Yposition Zposition Xrotation Yrotation Zrotation
						End Site
						{
							OFFSET -0.238797 -0.001318 0.004062
						}
					}
				}
			}
		}
	}
	JOINT pelvis.L
	{
		OFFSET 0.000000 0.000000 0.000000
		CHANNELS 6 Xposition Yposition Zposition Yrotation Xrotation Zrotation
		End Site
		{
			OFFSET 0.110591 0.000000 0.000000
		}
	}
	JOINT pelvis.R
	{
		OFFSET 0.000000 0.000000 0.000000
		CHANNELS 6 Xposition Yposition Zposition Yrotation Xrotation Zrotation
		End Site
		{
			OFFSET -0.110591 0.000000 0.000000
		}
	}
	JOINT thigh.L
	{
		OFFSET 0.110591 0.000000 0.000000
		CHANNELS 6 Xposition Yposition Zposition Xrotation Yrotation Zrotation
		JOINT shin.L
		{
			OFFSET 0.018738 -0.357535 0.000000
			CHANNELS 6 Xposition Yposition Zposition Xrotation Yrotation Zrotation
			JOINT foot.L
			{
				OFFSET 0.015788 -0.301246 0.000000
				CHANNELS 6 Xposition Yposition Zposition Xrotation Yrotation Zrotation
				End Site
				{
					OFFSET 0.016159 -0.069186 0.164762
				}
			}
		}
	}
	JOINT thigh.R
	{
		OFFSET -0.110591 0.000000 0.000000
		CHANNELS 6 Xposition Yposition Zposition Xrotation Yrotation Zrotation
		JOINT shin.R
		{
			OFFSET -0.018180 -0.346900 0.000000
			CHANNELS 6 Xposition Yposition Zposition Xrotation Yrotation Zrotation
			JOINT foot.R
			{
				OFFSET -0.016204 -0.309190 0.000000
				CHANNELS 6 Xposition Yposition Zposition Xrotation Yrotation Zrotation
				End Site
				{
					OFFSET -0.017013 -0.072841 0.173465
				}
			}
		}
	}
}
MOTION
Frames: 11
Frame Time: 0.041667
0.016889 -0.015755 -0.044267 0.000000 4.435317 -0.000001 -0.000000 0.000000 -0.000000 -9.383744 0.071978 -0.532930 10.000169 0.321792 -0.039500 -0.000000 0.264954 -0.032532 6.696370 1.474141 1.513478 0.000000 0.213700 -0.003730 2.816904 0.000002 -0.000000 -0.000000 0.264955 -0.032532 -0.064963 -0.000298 -0.529655 0.164955 0.000000 0.000000 -6.813429 -8.204749 -79.456130 0.279839 0.000957 -0.000115 -1.295824 -16.584476 -9.315539 -0.000000 0.264955 -0.032532 -0.071363 -0.000358 -0.581204 -0.164955 0.000000 0.000000 -5.760324 7.036937 78.602609 -0.274111 0.000957 -0.000115 -2.298116 19.080671 14.382056 -0.000000 -0.000000 -0.000000 0.000083 -0.000000 0.921694 0.000000 0.000000 -0.000000 0.000000 0.000000 0.921694 0.110577 0.001779 0.000000 0.043297 0.001319 -2.489240 0.018738 -0.357535 0.000000 1.697877 0.048240 -2.745287 0.015788 -0.301246 0.000000 -7.856522 10.288803 5.925636 -0.110577 -0.001779 -0.000000 -0.486423 0.025966 -0.111272 -0.018180 -0.346900 0.000000 5.831730 -0.131581 3.417085 -0.016204 -0.309190 0.000000 -8.850464 -16.865726 -9.467065 
0.016930 -0.015722 -0.044278 0.000000 4.433879 -0.000001 -0.000000 -0.000000 -0.000000 -9.376526 0.071399 -0.528896 10.000217 0.315246 -0.038683 -0.000000 0.264954 -0.032532 6.675717 1.482722 1.507769 -0.000000 0.213700 -0.003730 2.822136 -0.000001 -0.000000 -0.000000 0.264955 -0.032532 -0.064888 -0.000300 -0.528964 0.164955 -0.000000 0.000000 -6.809794 -8.199731 -79.461089 0.279839 0.000957 -0.000115 -1.297604 -16.604385 -9.315630 -0.000000 0.264955 -0.032532 -0.071233 -0.000360 -0.580514 -0.164955 -0.000000 0.000000 -5.770584 7.050198 78.596763 -0.274111 0.000957 -0.000115 -2.297860 19.057652 14.400728 -0.000000 -0.000000 -0.000000 0.000053 -0.000001 0.924535 -0.000000 0.000000 -0.000000 0.000000 -0.000000 0.924566 0.110577 0.001784 -0.000000 0.037765 0.001155 -2.491871 0.018738 -0.357535 0.000000 1.704539 0.048464 -2.743032 0.015788 -0.301246 0.000000 -7.829758 10.306173 5.928512 -0.110577 -0.001784 -0.000000 -0.494395 0.026460 -0.127035 -0.018180 -0.346900 0.000000 5.846584 -0.130574 3.443354 -0.016204 -0.309190 0.000000 -8.868653 -16.871467 -9.475153 
0.016969 -0.015691 -0.044289 0.000000 4.433682 -0.000001 -0.000000 -0.000000 -0.000000 -9.371671 0.070820 -0.524775 10.000085 0.317892 -0.039024 -0.000000 0.264954 -0.032532 6.663365 1.486341 1.504744 -0.000000 0.213700 -0.003730 2.825803 -0.000002 -0.000000 -0.000000 0.264955 -0.032532 -0.064844 -0.000299 -0.527199 0.164955 0.000000 -0.000000 -6.812107 -8.201501 -79.467619 0.279839 0.000957 -0.000115 -1.298268 -16.609779 -9.316973 -0.000000 0.264955 -0.032532 -0.071128 -0.000360 -0.578750 -0.164955 -0.000000 0.000000 -5.773980 7.055382 78.589454 -0.274111 0.000957 -0.000115 -2.298512 19.042666 14.418318 -0.000000 -0.000000 0.000000 0.000075 -0.000000 0.927408 0.000000 0.000000 0.000000 0.000000 -0.000000 0.927408 0.110577 0.001790 -0.000000 0.034785 0.001063 -2.494594 0.018738 -0.357535 0.000000 1.707842 0.048593 -2.740803 0.015788 -0.301246 0.000000 -7.807478 10.319391 5.930278 -0.110577 -0.001790 0.000000 -0.501367 0.026908 -0.143860 -0.018180 -0.346900 0.000000 5.862578 -0.129347 3.474327 -0.016204 -0.309190 0.000000 -8.890200 -16.879925 -9.485606 
0.017011 -0.015655 -0.044298 0.000000 4.433146 -0.000001 0.000000 -0.000000 -0.000000 -9.367346 0.070154 -0.519981 10.000013 0.321946 -0.039551 -0.000000 0.264954 -0.032532 6.651408 1.494737 1.501434 -0.000000 0.213700 -0.003730 2.833850 0.000001 0.000000 0.000000 0.264954 -0.032532 -0.064761 -0.000299 -0.526605 0.164955 -0.000000 0.000000 -6.813748 -8.202734 -79.472707 0.279839 0.000957 -0.000115 -1.298739 -16.613160 -9.318319 -0.000000 0.264955 -0.032532 -0.071013 -0.000359 -0.578239 -0.164955 0.000000 0.000000 -5.774650 7.057080 78.582549 -0.274111 0.000957 -0.000115 -2.300008 19.034479 14.435268 0.000000 0.000000 0.000000 0.000003 -0.000000 0.932009 0.000000 0.000000 0.000000 0.000000 -0.000000 0.932009 0.110577 0.001799 -0.000000 0.034191 0.001040 -2.499444 0.018738 -0.357535 0.000000 1.707422 0.048647 -2.736184 0.015788 -0.301246 0.000000 -7.792425 10.328915 5.931756 -0.110577 -0.001799 0.000000 -0.506558 0.027252 -0.159032 -0.018180 -0.346900 0.000000 5.875189 -0.128193 3.502180 -0.016204 -0.309190 0.000000 -8.908049 -16.889654 -9.495644 
0.017057 -0.015619 -0.044309 0.000000 4.433772 -0.000001 0.000000 -0.000000 0.000000 -9.362221 0.069411 -0.514647 10.000095 0.319840 -0.039264 0.000000 0.264954 -0.032532 6.636403 1.511967 1.495595 0.000000 0.213700 -0.003730 2.846537 0.000003 0.000001 -0.000000 0.264955 -0.032532 -0.064864 -0.000297 -0.528368 0.164955 -0.000000 0.000000 -6.811349 -8.199561 -79.474476 0.279839 0.000957 -0.000115 -1.299676 -16.621539 -9.319724 -0.000000 0.264955 -0.032532 -0.071246 -0.000359 -0.579959 -0.164955 0.000000 0.000000 -5.778265 7.062495 78.575323 -0.274111 0.000957 -0.000115 -2.301913 19.026132 14.455148 -0.000000 -0.000000 -0.000000 0.000040 -0.000001 0.938433 0.000000 0.000000 -0.000000 0.000000 0.000000 0.938402 0.110576 0.001811 -0.000000 0.034812 0.001060 -2.506460 0.018738 -0.357535 0.000000 1.703346 0.048628 -2.729495 0.015788 -0.301246 0.000000 -7.782644 10.334937 5.932630 -0.110576 -0.001811 -0.000000 -0.509899 0.027483 -0.171131 -0.018180 -0.346900 0.000000 5.881245 -0.127274 3.522783 -0.016204 -0.309190 0.000000 -8.914446 -16.899505 -9.502467 
0.017101 -0.015590 -0.044327 0.000000 4.438678 -0.000001 0.000000 -0.000000 -0.000000 -9.356627 0.068741 -0.509922 10.000064 0.309767 -0.038051 0.000000 0.264954 -0.032532 6.622226 1.532255 1.488318 -0.000000 0.213700 -0.003730 2.858286 -0.000005 0.000000 0.000000 0.264955 -0.032532 -0.065170 -0.000301 -0.531050 0.164955 0.000000 0.000000 -6.806689 -8.193994 -79.474565 0.279839 0.000957 -0.000115 -1.300767 -16.632270 -9.320783 0.000000 0.264955 -0.032532 -0.071552 -0.000361 -0.582600 -0.164955 0.000000 0.000000 -5.785659 7.072623 78.566239 -0.274111 0.000957 -0.000115 -2.303860 19.014678 14.478060 0.000000 0.000000 0.000000 -0.000037 0.000001 0.944888 0.000000 0.000000 0.000000 0.000000 -0.000000 0.944888 0.110576 0.001824 0.000000 0.034764 0.001057 -2.512745 0.018738 -0.357535 0.000000 1.698167 0.048549 -2.725009 0.015788 -0.301246 0.000000 -7.774552 10.337525 5.932182 -0.110576 -0.001824 -0.000000 -0.511286 0.027596 -0.179250 -0.018180 -0.346900 0.000000 5.881478 -0.126581 3.536331 -0.016204 -0.309190 0.000000 -8.910527 -16.910073 -9.506688 
0.017136 -0.015566 -0.044345 0.000000 4.447496 -0.000001 0.000000 -0.000000 -0.000000 -9.351898 0.068297 -0.506753 10.000090 0.295734 -0.036311 -0.000000 0.264954 -0.032532 6.613098 1.545431 1.482233 -0.000000 0.213700 -0.003730 2.863325 -0.000003 0.000001 -0.000000 0.264955 -0.032532 -0.065340 -0.000304 -0.532606 0.164955 -0.000000 0.000000 -6.802331 -8.188483 -79.475760 0.279839 0.000957 -0.000115 -1.301560 -16.641606 -9.320476 0.000000 0.264955 -0.032532 -0.071704 -0.000366 -0.584156 -0.164955 0.000000 0.000000 -5.792895 7.082873 78.555645 -0.274111 0.000957 -0.000115 -2.304612 19.001147 14.494998 0.000000 -0.000000 0.000000 0.000151 -0.000003 0.949026 0.000000 0.000000 0.000000 0.000000 -0.000000 0.949027 0.110576 0.001832 -0.000000 0.032799 0.000996 -2.514930 0.018738 -0.357535 0.000000 1.695677 0.048434 -2.727773 0.015788 -0.301246 0.000000 -7.765917 10.339186 5.931149 -0.110576 -0.001832 0.000000 -0.510929 0.027595 -0.182274 -0.018180 -0.346900 0.000000 5.877916 -0.126208 3.542034 -0.016204 -0.309190 0.000000 -8.900165 -16.921169 -9.509331 
0.017162 -0.015529 -0.044361 0.000000 4.456152 -0.000001 -0.000000 -0.000000 -0.000000 -9.348060 0.068010 -0.504750 10.000113 0.283087 -0.034757 -0.000000 0.264954 -0.032532 6.608006 1.549102 1.478502 0.000000 0.213700 -0.003730 2.862636 -0.000000 0.000000 0.000000 0.264955 -0.032532 -0.065463 -0.000301 -0.532765 0.164955 -0.000000 -0.000000 -6.798435 -8.183294 -79.478731 0.279839 0.000957 -0.000115 -1.301908 -16.648120 -9.318652 -0.000000 0.264954 -0.032532 -0.071790 -0.000365 -0.584399 -0.164955 0.000000 0.000000 -5.797380 7.089746 78.545393 -0.274111 0.000957 -0.000115 -2.302296 18.984907 14.494495 -0.000000 -0.000000 -0.000000 0.000017 -0.000000 0.950169 0.000000 0.000000 -0.000000 0.000000 0.000000 0.950169 0.110576 0.001834 -0.000000 0.029675 0.000904 -2.511671 0.018738 -0.357535 0.000000 1.695949 0.048259 -2.739922 0.015788 -0.301246 0.000000 -7.756709 10.342578 5.930855 -0.110576 -0.001834 -0.000000 -0.510444 0.027550 -0.179626 -0.018180 -0.346900 0.000000 5.872946 -0.126339 3.537363 -0.016204 -0.309190 0.000000 -8.885480 -16.930410 -9.509794 
0.017179 -0.015464 -0.044384 0.000000 4.459951 -0.000001 0.000000 -0.000000 -0.000000 -9.343762 0.067784 -0.503236 10.000042 0.275236 -0.033806 0.000000 0.264955 -0.032532 6.603939 1.556856 1.476318 -0.000000 0.213700 -0.003730 2.861350 -0.000002 -0.000000 0.000000 0.264955 -0.032532 -0.065420 -0.000303 -0.532627 0.164955 0.000000 0.000000 -6.795278 -8.179158 -79.481607 0.279839 0.000957 -0.000115 -1.301767 -16.650041 -9.316299 0.000000 0.264954 -0.032532 -0.071704 -0.000366 -0.584261 -0.164955 -0.000000 0.000000 -5.800744 7.094984 78.536384 -0.274111 0.000957 -0.000115 -2.296388 18.963265 14.475235 0.000000 -0.000000 0.000000 0.000009 -0.000000 0.950262 0.000000 0.000000 0.000000 -0.000000 -0.000000 0.950231 0.110576 0.001834 0.000000 0.026703 0.000811 -2.503638 0.018738 -0.357535 0.000000 1.695445 0.047950 -2.760100 0.015788 -0.301246 0.000000 -7.748432 10.349188 5.932345 -0.110576 -0.001834 0.000000 -0.512609 0.027633 -0.172194 -0.018180 -0.346900 0.000000 5.870320 -0.127050 3.522481 -0.016204 -0.309190 0.000000 -8.872498 -16.933326 -9.507554 
0.017185 -0.015373 -0.044424 0.000000 4.457977 -0.000001 -0.000000 -0.000000 0.000000 -9.338165 0.067663 -0.502484 10.000137 0.271281 -0.033300 -0.000000 0.264954 -0.032532 6.599929 1.584221 1.474660 0.000000 0.213699 -0.003730 2.859711 -0.000001 0.000000 -0.000000 0.264955 -0.032532 -0.065418 -0.000301 -0.532610 0.164955 0.000000 0.000000 -6.793908 -8.177225 -79.482761 0.279839 0.000957 -0.000115 -1.301215 -16.648065 -9.313366 -0.000000 0.264954 -0.032532 -0.071737 -0.000367 -0.584203 -0.164955 0.000000 0.000000 -5.807133 7.103899 78.528488 -0.274111 0.000957 -0.000115 -2.288063 18.933648 14.447305 -0.000000 -0.000000 -0.000000 0.000076 -0.000000 0.950880 0.000000 0.000000 -0.000000 0.000000 0.000000 0.950911 0.110576 0.001835 -0.000000 0.023043 0.000703 -2.492809 0.018738 -0.357535 0.000000 1.693888 0.047553 -2.783927 0.015788 -0.301246 0.000000 -7.742624 10.358337 5.935615 -0.110576 -0.001835 0.000000 -0.518614 0.027917 -0.162228 -0.018180 -0.346900 0.000000 5.873119 -0.128109 3.503006 -0.016204 -0.309190 0.000000 -8.868672 -16.927471 -9.503495 
0.017177 -0.015279 -0.044475 0.000000 4.453072 -0.000001 0.000000 -0.000000 0.000000 -9.331632 0.067716 -0.503080 10.000106 0.265768 -0.032647 -0.000000 0.264954 -0.032532 6.596750 1.627832 1.473417 0.000000 0.213700 -0.003730 2.855489 0.000002 0.000000 0.000000 0.264954 -0.032533 -0.065355 -0.000304 -0.532552 0.164955 0.000000 -0.000000 -6.792129 -8.175139 -79.482816 0.279839 0.000957 -0.000115 -1.300495 -16.647647 -9.308196 -0.000000 0.264954 -0.032533 -0.071653 -0.000368 -0.584186 -0.164955 -0.000000 -0.000000 -5.820098 7.120639 78.521972 -0.274111 0.000957 -0.000115 -2.278878 18.895261 14.421492 0.000000 0.000000 0.000000 -0.000073 0.000000 0.950818 0.000000 0.000000 0.000000 0.000000 -0.000000 0.950849 0.110576 0.001835 0.000000 0.016186 0.000491 -2.481811 0.018738 -0.357535 0.000000 1.697245 0.047322 -2.805754 0.015788 -0.301246 0.000000 -7.740731 10.368623 5.940305 -0.110576 -0.001835 -0.000000 -0.525650 0.028248 -0.152266 -0.018180 -0.346900 0.000000 5.879425 -0.129118 3.486043 -0.016204 -0.309190 0.000000 -8.870224 -16.915204 -9.497725 
